PathFileType	4	(X/Y/Z)	C:/Users/beibeiliu/ov580/test_trc/User1\sequence.20_training_dense_left.trc
DataRate	CameraRate	NumFrames	NumMarkers	Units	OrigDataRate	OrigDataStartFrame	OrigNumFrames
120	120	13	19	mm	120	99	263
Frame#	Time	ThumbCMC			ThumbMCP			ThumbIP			ThumbTip			IndexMCP			IndexPIP			IndexTip			MiddleMCP			MiddlePIP			MiddleTip			RingMCP			RingPIP			RingTip			PinkyMCP			PinkyPIP			PinkyTip			BackHand1			BackHand2			BackHand3	
		X0	Y0	Z0	X1	Y1	Z1	X2	Y2	Z2	X3	Y3	Z3	X4	Y4	Z4	X5	Y5	Z5	X6	Y6	Z6	X7	Y7	Z7	X8	Y8	Z8	X9	Y9	Z9	X10	Y10	Z10	X11	Y11	Z11	X12	Y12	Z12	X13	Y13	Z13	X14	Y14	Z14	X15	Y15	Z15	X16	Y16	Z16	X17	Y17	Z17	X18	Y18	Z18	
98	0.816667	-160.715	-7.53592	40.1528	-147.304	-29.9887	19.6239	-133.421	-37.4664	-6.12816	-128.754	-48.2223	-26.27	-160.839	29.3875	-37.6758	-161.206	27.3403	-73.1277	-167.059	6.77047	-94.2686	-183.008	38.8209	-50.3914	-180.337	30.282	-81.9454	-187.366	-5.62203	-100.175	-204.275	38.0999	-49.3256	-205.327	29.7092	-78.9163	-205.663	3.7756	-94.7939	-225.084	28.2888	-36.6457	-219.583	21.7997	-61.9039	-213.113	7.04919	-86.1847	-210.715	37.3973	8.35437	-220.181	34.9236	43.7245	-179.4	27.1429	32.1218	
99	0.825	-171.264	-2.91442	29.0591	-158.496	-24.9849	7.71434	-146.259	-35.3988	-12.1505	-142.087	-47.794	-34.0469	-175.678	35.2292	-46.2736	-179.376	35.5354	-75.7664	-187.255	12.1997	-99.7708	-198.315	44.1016	-53.3251	-198.639	33.3057	-88.7746	-206.176	-0.688782	-104.363	-219.755	43.643	-53.1822	-218.846	34.5537	-82.3898	-221.989	8.60736	-98.5612	-237.396	33.957	-34.2164	-236.214	30.497	-61.0975	-230.31	15.5616	-83.7081	-222.35	43.0497	8.3396	-224.642	39.293	39.8232	-189.611	34.1179	27.6553	
100	0.833333	-181.798	-2.20338	29.1889	-168.741	-24.1418	2.78128	-160.198	-33.5872	-18.1321	-155.777	-47.2235	-41.3956	-189.392	36.6956	-48.4917	-197.462	37.7472	-78.3358	-208.46	14.5116	-103.389	-214.247	47.7639	-59.9266	-217.799	38.0675	-90.0413	-223.682	3.17561	-106.302	-233.386	45.6312	-50.5633	-235.668	37.4452	-82.2692	-242.841	9.88413	-100.399	-255.675	37.6223	-35.9496	-251.54	33.7673	-60.8065	-248.474	20.0473	-85.2992	-233.186	44.644	6.42542	-232.015	39.6532	42.5191	-197.242	33.7124	22.1451	
101	0.841667	-188.788	0.595721	19.6942	-185.449	-21.2301	-1.61739	-178.232	-31.1214	-26.0273	-174.956	-45.0956	-47.9208	-204.377	38.7991	-52.5302	-213.349	39.0971	-80.8984	-229.08	16.249	-105.747	-228.899	48.1906	-56.9009	-238.36	37.4751	-92.2606	-247.558	7.48275	-104.797	-248.246	47.6664	-51.8187	-257.176	36.9789	-84.507	-262.287	11.9796	-98.0852	-269.311	39.3694	-33.9013	-267.621	35.2585	-57.8441	-268.75	20.4281	-84.8957	-242.885	47.035	7.19753	-242.824	43.0578	37.7705	-205.887	38.8393	16.3561	
102	0.85	-197.624	1.56937	16.2418	-194.63	-21.6468	-8.40797	-192.595	-32.777	-30.1235	-194.219	-46.8975	-53.0453	-218.382	41.1242	-57.8471	-230.574	39.61	-84.8418	-246.695	20.6216	-103.324	-246.237	51.0391	-59.4364	-251.704	40.2355	-91.8434	-264.906	8.16237	-104.223	-265.948	48.7861	-49.6105	-272.134	37.8381	-82.2025	-282.054	12.0554	-94.7878	-280.352	39.2072	-30.2308	-282.948	33.837	-58.1189	-287.637	19.4351	-81.8414	-254.542	48.4405	6.5216	-247.034	44.7222	37.5132	-218.436	41.0443	14.6435	
103	0.858333	-210.252	1.42391	15.1734	-207.748	-22.2248	-7.52975	-203.536	-36.7679	-30.9673	-208.451	-50.4566	-54.571	-232.799	40.3127	-56.5521	-246.841	38.5811	-85.2356	-261.215	18.3197	-105.303	-256.885	50.2711	-58.887	-269.458	38.7989	-90.9076	-278.702	9.76429	-101.674	-274.158	48.7335	-49.8111	-284.749	38.3005	-79.4434	-295.363	8.7434	-90.6913	-291.468	40.7806	-30.7183	-295.444	32.844	-56.4126	-299.336	15.9691	-79.9515	-262.556	47.8496	6.30332	-254.814	45.7779	37.6816	-227.214	39.9957	13.8308	
104	0.866667	-215.012	0.772219	17.225	-215.328	-23.4564	-9.0452	-211.947	-39.3445	-31.4005	-218.015	-53.559	-55.7418	-240.356	38.6527	-57.0729	-258.165	36.0451	-84.9841	-275.094	16.0911	-103.718	-266.943	49.3455	-57.1203	-278.664	39.151	-88.3006	-290.037	3.48855	-99.3656	-285.215	49.2096	-50.4902	-294.528	38.5811	-76.2995	-303.753	7.34685	-86.8405	-298.63	39.4519	-25.2305	-304.621	32.7199	-52.5583	-310.923	15.668	-74.6262	-269.219	50.1554	8.02552	-261.556	48.0679	44.135	-230.04	37.0253	15.4387	
105	0.875	-218.886	-0.423515	14.8711	-218.481	-27.3764	-5.51264	-219.626	-40.1895	-30.3804	-222.224	-56.4918	-46.4633	-242.524	33.6312	-57.3524	-261.508	33.639	-80.7279	-278.215	13.0481	-103.488	-265.705	46.2012	-57.7381	-281.812	37.8033	-86.3326	-294.941	3.88206	-98.423	-286.027	46.5362	-44.1614	-299.067	33.9543	-77.1857	-310.752	3.45089	-84.6571	-305.015	39.7523	-25.518	-310.882	33.25	-50.7229	-310.982	13.2008	-70.4774	-266.953	46.5771	8.79639	-259.876	45.9354	43.135	-236.603	36.6899	12.6895	
106	0.883333	-215.493	-6.10868	17.2364	-216.077	-32.9577	-1.72895	-219.202	-45.7379	-28.2829	-226.254	-61.1852	-49.8889	-245.096	30.8954	-59.1438	-261.5	29.0256	-83.4812	-279.654	9.42812	-99.8477	-269.206	44.8809	-59.3386	-283.566	33.7654	-85.4334	-300.641	0.200343	-94.8412	-286.037	44.402	-44.7058	-302.486	33.5164	-72.7388	-313.724	5.43124	-80.2673	-302.404	38.3498	-28.8392	-313.848	32.0085	-50.4858	-317.354	6.98539	-70.9293	-270.345	45.3922	8.03018	-260.626	43.9829	44.2869	-231.885	32.1444	15.2972	
107	0.891667	-216.51	-7.39815	20.1186	-215.725	-33.9141	-5.27169	-217.602	-47.6189	-24.9974	-222.56	-64.5615	-46.6615	-240.676	26.8774	-55.8141	-259.918	25.3978	-81.959	-279.181	4.15215	-97.1988	-267.606	41.2208	-58.9709	-281.814	28.3001	-86.9852	-296.84	-0.659466	-93.2193	-286.304	41.94	-46.1191	-302.071	31.7534	-72.3626	-309.252	0.454696	-80.9556	-300.471	37.476	-26.8241	-308.113	29.0335	-49.2852	-311.161	5.20591	-68.0788	-269.36	44.359	9.43032	-259.473	41.9271	44.0963	-230.525	32.5082	14.8596	
108	0.9	-211.896	-8.78922	21.9784	-212.854	-34.152	-1.63183	-211.53	-50.354	-23.5123	-217.292	-66.3908	-40.9131	-236.771	24.3573	-55.0343	-254.714	21.6882	-81.4612	-270.518	-2.37948	-99.2867	-260.347	38.2597	-59.1304	-276.816	23.9568	-87.0267	-289.037	-8.25321	-93.7815	-282.734	39.6216	-48.2971	-296.05	28.3077	-72.58	-304.33	-3.45484	-79.3702	-297.286	34.3311	-26.1295	-305.832	25.4986	-51.5878	-304.228	5.04652	-68.6928	-263.147	41.28	9.88129	-255.587	41.2082	42.5292	-229.81	28.9054	15.3172	
109	0.908333	-207.317	-9.81291	21.8518	-201.55	-38.1166	1.97409	-205.874	-51.6239	-20.4714	-210.456	-67.6218	-41.9627	-233.264	22.3509	-53.7818	-245.893	19.5255	-77.9401	-261.072	-1.29624	-95.2566	-253.406	34.791	-52.8354	-268.295	23.2297	-85.6951	-283.22	-7.20522	-91.2762	-273.957	37.3036	-45.4275	-287.308	22.9593	-73.8485	-297.438	-2.45282	-79.1631	-291.803	33.3552	-25.9075	-294.36	23.3075	-50.9178	-299.326	2.73093	-69.7	-259.282	38.203	14.6392	-250.278	39.2825	46.5753	-222.23	27.5894	20.6364	
110	0.916667	-197.445	-12.0017	29.217	-192.471	-39.3049	3.05687	-195.884	-51.8769	-19.3406	-201.942	-64.8269	-38.6384	-222.218	20.8807	-50.4594	-238.988	16.6014	-77.9525	-250.982	-1.80581	-94.2757	-244.048	33.6507	-54.4807	-259.328	21.8887	-83.7946	-271.449	-14.1562	-92.4806	-263.08	35.7424	-43.7353	-275.921	24.3892	-72.1339	-287.677	-4.23353	-79.7541	-280.286	30.6491	-24.0061	-285.325	23.512	-48.8901	-286.574	2.36541	-66.8642	-252.948	36.7831	15.9492	-246.188	37.328	48.7486	-214.172	26.1855	22.8774	
